HIERARCHY
ROOT Hips
{
	OFFSET 0.00000 0.00000 0.00000
	CHANNELS 6 Xposition Yposition Zposition Zrotation Yrotation Xrotation 
	JOINT LHipJoint
	{
		OFFSET 0 0 0
		CHANNELS 3 Zrotation Yrotation Xrotation
		JOINT LeftHip
		{
			OFFSET 1.58895 -1.83665 0.71753
			CHANNELS 3 Zrotation Yrotation Xrotation
			JOINT LeftKnee
			{
				OFFSET 2.50528 -6.88321 0.00000
				CHANNELS 3 Zrotation Yrotation Xrotation
				JOINT LeftAnkle
				{
					OFFSET 2.63244 -7.23257 0.00000
					CHANNELS 3 Zrotation Yrotation Xrotation
					JOINT LeftToe
					{
						OFFSET 0.23691 -0.65090 1.72750
						CHANNELS 3 Zrotation Yrotation Xrotation
						End Site
						{
							OFFSET 0.00000 -0.00000 0.92561
						}
					}
				}
			}
		}
	}
	JOINT RHipJoint
	{
		OFFSET 0 0 0
		CHANNELS 3 Zrotation Yrotation Xrotation
		JOINT RightHip
		{
			OFFSET -1.51435 -1.83665 0.71753
			CHANNELS 3 Zrotation Yrotation Xrotation
			JOINT RightKnee
			{
				OFFSET -2.54551 -6.99375 0.00000
				CHANNELS 3 Zrotation Yrotation Xrotation
				JOINT RightAnkle
				{
					OFFSET -2.66027 -7.30903 0.00000
					CHANNELS 3 Zrotation Yrotation Xrotation
					JOINT RightToe
					{
						OFFSET -0.22981 -0.63138 2.03959
						CHANNELS 3 Zrotation Yrotation Xrotation
						End Site
						{
							OFFSET -0.00000 -0.00000 1.07060
						}
					}
				}
			}
		}
	}
	JOINT lowerback
	{
		OFFSET 0 0 0
		CHANNELS 3 Zrotation Yrotation Xrotation
		JOINT Chest
		{
			OFFSET -0.02651 1.86275 -0.11152
			CHANNELS 3 Zrotation Yrotation Xrotation
			JOINT Chest2
			{
				OFFSET 0.01019 1.86224 0.04087
				CHANNELS 3 Zrotation Yrotation Xrotation
				JOINT lowerneck
				{
					OFFSET 0 0 0
					CHANNELS 3 Zrotation Yrotation Xrotation
					JOINT Neck
					{
						OFFSET -0.01926 1.80512 0.08867
						CHANNELS 3 Zrotation Yrotation Xrotation
						JOINT Head
						{
							OFFSET 0.05516 1.76451 -0.38475
							CHANNELS 3 Zrotation Yrotation Xrotation
							End Site
							{
								OFFSET 0.01592 1.82587 -0.14001
							}
						}
					}
				}
				JOINT LeftCollar
				{
					OFFSET 0 0 0
					CHANNELS 3 Zrotation Yrotation Xrotation
					JOINT LeftShoulder
					{
						OFFSET 3.47116 1.51376 0.14491
CHANNELS 3 Zrotation Xrotation Yrotation
						JOINT LeftElbow
						{
OFFSET 0 -4.780950 0.000000
CHANNELS 3 Zrotation Xrotation Yrotation
							JOINT LeftWrist
							{
OFFSET 0 -3.586150 -0.000000
CHANNELS 3 Zrotation Xrotation Yrotation
								JOINT lhand
								{
									OFFSET 0 0 0
CHANNELS 3 Zrotation Xrotation Yrotation
									JOINT LFingers
									{
OFFSET 0 -0.659810 0.000000
CHANNELS 3 Zrotation Xrotation Yrotation
										End Site
										{
OFFSET 0 -0.531960 0.000000
										}
									}
								}
								JOINT LThumb
								{
OFFSET 0 0.000000 0.000000
CHANNELS 3 Zrotation Xrotation Yrotation
									End Site
									{
OFFSET 0 -0.540080 0.540080
									}
								}
							}
						}
					}
				}
				JOINT RightCollar
				{
					OFFSET 0 0 0
					CHANNELS 3 Zrotation Yrotation Xrotation
					JOINT RightShoulder
					{
						OFFSET -3.31725 1.61216 0.35156
CHANNELS 3 Zrotation Xrotation Yrotation
						JOINT RightElbow
						{
OFFSET 0 -4.489130 0.000000
CHANNELS 3 Zrotation Xrotation Yrotation
							JOINT RightWrist
							{
OFFSET 0 -3.705100 0.000000
CHANNELS 3 Zrotation Xrotation Yrotation
								JOINT rhand
								{
									OFFSET 0 0 0
CHANNELS 3 Zrotation Xrotation Yrotation
									JOINT RFingers
									{
OFFSET 0 -0.449140 0.000000
CHANNELS 3 Zrotation Xrotation Yrotation
										End Site
										{
OFFSET 0 -0.362110 0.000000
										}
									}
								}
								JOINT RThumb
								{
OFFSET 0 0.000000 0.000000
CHANNELS 3 Zrotation Xrotation Yrotation
									End Site
									{
OFFSET 0 -0.367630 0.367630
									}
								}
							}
						}
					}
				}
			}
		}
	}
}
MOTION
Frames: 11
Frame Time: 0.008333333333333333
-0.634500 18.591400 6.383700 -2.227700 -3.244200 -1.479000 0.000000 0.000000 0.000000 -14.040400 -7.434500 1.703800 1.587100 7.947100 22.553600 1.731600 3.311300 -26.231300 8.432300 -16.428200 -54.105400 0.000000 0.000000 0.000000 14.219900 -9.912700 9.243800 0.000000 0.000000 -0.000000 -0.515600 0.326700 -13.456700 -0.199200 2.874000 -7.928100 0.009800 0.718700 4.364800 1.008300 0.979600 0.417600 0.970200 0.492300 -2.035000 -2.377700 -1.732500 -11.361500 1.975800 -2.288200 16.617400 0.817400 -1.076800 7.003100 -0.000000 -0.000000 0.000000 -2.539500 8.356200 -35.395300 19.627500 -30.190900 5.342700 8.255500 4.696400 25.722900 0.000000 0.000000 0.000000 -7.125000 0.000000 0.000000 -12.976800 4.579900 -12.223300 -0.000000 -0.000000 0.000000 -1.494400 15.117200 27.294400 -23.977600 -35.140500 -7.693600 -9.122600 19.992900 28.590200 0.000000 0.000000 0.000000 7.125000 0.000000 -0.000000 23.704300 57.261900 -7.400000
-0.631795 18.591237 6.381349 -2.133302 -3.237388 -1.481616 0.000000 0.000000 0.000000 -14.161493 -7.521925 1.813927 1.570402 7.907239 22.432592 1.739659 3.268155 -26.268012 8.377617 -16.390056 -53.911685 0.000000 0.000000 0.000000 14.113810 -9.911702 9.230662 0.000000 0.000000 0.000000 -0.513854 0.274865 -13.450999 -0.225326 3.055286 -8.432783 -0.078735 0.716897 4.334901 0.986015 0.971938 0.466356 0.998177 0.488873 -1.969175 -2.495223 -1.792929 -11.398401 2.042448 -2.361636 16.700251 0.851014 -1.113251 7.040432 0.000000 0.000000 0.000000 -2.506834 8.366905 -35.502377 19.882550 -30.500495 5.471636 5.585163 6.224801 24.910728 0.000000 0.000000 0.000000 -7.125000 0.000000 0.000000 -14.568094 5.627144 -13.523538 0.000000 0.000000 0.000000 -1.492792 14.925651 27.231782 -23.976897 -35.139846 -7.693281 -8.998465 19.876838 28.604514 0.000000 0.000000 0.000000 7.125000 0.000000 0.000000 23.838902 57.248824 -7.437801
-0.630532 18.591026 6.379264 -2.072724 -3.145586 -1.488902 0.000000 0.000000 0.000000 -14.221384 -7.572989 1.867060 1.559623 7.881259 22.353860 1.746944 3.093482 -26.239473 8.338364 -16.362622 -53.772602 0.000000 0.000000 0.000000 14.035007 -9.998362 9.213620 0.000000 0.000000 0.000000 -0.512913 0.275187 -13.438931 -0.224438 3.049603 -8.416908 0.048994 0.732529 4.765928 0.856426 1.000617 0.195739 0.784164 0.502695 -2.484881 -2.427162 -1.800673 -11.110402 2.028904 -2.391652 16.841001 0.834670 -1.126387 7.034980 0.000000 0.000000 0.000000 -2.262778 8.819493 -35.566526 19.931705 -30.559930 5.496552 5.033689 6.576840 24.727806 0.000000 0.000000 0.000000 -7.125000 0.000000 0.000000 -14.898700 5.852890 -13.787309 0.000000 0.000000 0.000000 -1.188632 15.284173 26.853163 -24.040124 -35.206690 -7.729723 -8.792831 19.863941 28.842910 0.000000 0.000000 0.000000 7.125000 0.000000 0.000000 24.218392 57.421779 -7.668597
-0.629800 18.591174 6.376733 -2.006335 -3.027893 -1.462882 0.000000 0.000000 0.000000 -14.260810 -7.535518 1.803862 1.552240 7.863539 22.300454 1.737703 3.008903 -26.135312 8.384105 -16.394566 -53.934583 0.000000 0.000000 0.000000 13.956383 -10.102513 9.159096 0.000000 0.000000 0.000000 -0.510461 0.275285 -13.406248 -0.215136 2.986014 -8.239701 0.033084 0.709232 4.892845 0.815804 0.969069 0.106402 0.751282 0.487224 -2.646996 -2.079387 -1.522320 -10.806585 1.773045 -2.033209 16.837453 0.730164 -0.956279 6.965309 0.000000 0.000000 0.000000 -2.172111 8.866355 -35.334419 19.778039 -30.373960 5.418730 5.111592 6.892506 24.808591 0.000000 0.000000 0.000000 -7.125000 0.000000 0.000000 -14.851809 5.768183 -13.765587 0.000000 0.000000 0.000000 -1.070799 15.368798 26.712879 -24.128185 -35.299564 -7.780530 -9.047141 19.856647 28.794573 0.000000 0.000000 0.000000 7.125000 0.000000 0.000000 23.928358 57.431548 -7.575289
-0.630519 18.590600 6.374581 -1.937505 -2.954833 -1.460619 0.000000 0.000000 0.000000 -14.317875 -7.504855 1.767507 1.549885 7.857721 22.282747 1.734651 2.998524 -26.108993 8.443330 -16.435843 -54.144380 0.000000 0.000000 0.000000 13.879692 -10.171133 9.141717 0.000000 0.000000 0.000000 -0.510702 0.282749 -13.407193 -0.212059 2.964863 -8.181025 -0.056726 0.697609 4.882171 0.814331 0.948238 0.136470 0.801970 0.477787 -2.611178 -1.893020 -1.445080 -10.835900 1.658670 -1.942332 17.010138 0.670585 -0.910290 7.021222 0.000000 0.000000 0.000000 -2.118396 8.746921 -35.114508 19.627833 -30.191313 5.342932 4.911885 7.287653 24.818547 0.000000 0.000000 0.000000 -7.125000 0.000000 0.000000 -14.971550 5.775490 -13.882647 0.000000 0.000000 0.000000 -1.000431 15.262899 26.595320 -24.115646 -35.286312 -7.773255 -9.221217 19.906033 28.417893 0.000000 0.000000 0.000000 7.125000 0.000000 0.000000 23.482127 57.125502 -7.246931
-0.631742 18.590386 6.374143 -1.958472 -2.893882 -1.465548 0.000000 0.000000 0.000000 -14.274912 -7.483900 1.740376 1.550942 7.860440 22.290890 1.727364 2.955060 -26.037593 8.433355 -16.428947 -54.109092 0.000000 0.000000 0.000000 13.897601 -10.235910 9.144173 0.000000 0.000000 0.000000 -0.512554 0.340971 -13.411759 -0.197874 2.863967 -7.900345 -0.065925 0.694824 4.856922 0.851077 0.944553 0.183276 0.845782 0.476134 -2.549623 -1.906461 -1.458174 -10.753619 1.460372 -1.920686 16.860395 0.611358 -0.918573 6.956272 0.000000 0.000000 0.000000 -2.038859 8.656426 -35.029983 19.559132 -30.107532 5.308416 4.728620 7.504420 24.657237 0.000000 0.000000 0.000000 -7.125000 0.000000 0.000000 -15.081979 5.946638 -13.941848 0.000000 0.000000 0.000000 -0.959319 15.220123 26.572068 -24.123047 -35.294118 -7.777515 -9.438560 19.952391 28.352174 0.000000 0.000000 0.000000 7.125000 0.000000 0.000000 23.217771 57.110985 -7.150673
-0.632681 18.590353 6.375379 -1.991662 -2.844406 -1.482181 0.000000 0.000000 0.000000 -14.237764 -7.516258 1.759501 1.552502 7.864230 22.302315 1.726553 2.932014 -26.021234 8.413826 -16.415368 -54.039968 0.000000 0.000000 0.000000 13.929538 -10.293622 9.162698 0.000000 0.000000 0.000000 -0.514093 0.368324 -13.423844 -0.197516 2.861595 -7.893671 -0.051813 0.684379 4.853205 0.875954 0.931921 0.202598 0.864530 0.469749 -2.527671 -2.069945 -1.438263 -10.530561 1.614037 -1.892687 16.617995 0.692067 -0.903440 6.841516 0.000000 0.000000 0.000000 -1.960216 8.587934 -34.741475 19.425116 -29.943429 5.241383 4.581143 7.819482 24.689482 0.000000 0.000000 0.000000 -7.125000 0.000000 0.000000 -15.170289 5.927744 -14.035407 0.000000 0.000000 0.000000 -0.917239 15.258205 26.662833 -24.135591 -35.307321 -7.784778 -9.275076 19.848318 28.607610 0.000000 0.000000 0.000000 7.125000 0.000000 0.000000 23.564058 57.309670 -7.380468
-0.634857 18.590481 6.376139 -1.947931 -2.835521 -1.488506 0.000000 0.000000 0.000000 -14.264492 -7.466499 1.744327 1.551443 7.861548 22.294265 1.722771 2.894941 -25.977812 8.439425 -16.433142 -54.130425 0.000000 0.000000 0.000000 13.885073 -10.303517 9.169023 0.000000 0.000000 0.000000 -0.513280 0.351447 -13.418414 -0.200786 2.885581 -7.960515 -0.097932 0.696710 4.865120 0.858289 0.945205 0.219138 0.871174 0.476702 -2.517971 -2.183489 -1.438068 -10.444926 1.780405 -1.902380 16.531218 0.764069 -0.901473 6.801463 0.000000 0.000000 0.000000 -1.837505 8.538325 -34.538747 19.369288 -29.874970 5.213504 4.661564 7.972101 24.635695 0.000000 0.000000 0.000000 -7.125000 0.000000 0.000000 -15.122357 5.972987 -13.974136 0.000000 0.000000 0.000000 -0.835877 15.344565 26.721048 -24.167412 -35.340769 -7.803172 -9.202462 19.821145 28.667633 0.000000 0.000000 0.000000 7.125000 0.000000 0.000000 23.680115 57.348954 -7.442479
-0.635768 18.589532 6.376838 -1.870871 -2.870124 -1.513546 0.000000 0.000000 0.000000 -14.344272 -7.402183 1.770953 1.547889 7.853006 22.268418 1.719362 2.891104 -25.951468 8.451834 -16.441731 -54.174282 0.000000 0.000000 0.000000 13.796777 -10.271183 9.195553 0.000000 0.000000 0.000000 -0.514296 0.375320 -13.424491 -0.189359 2.802230 -7.728690 -0.114712 0.735470 4.907518 0.812239 0.994546 0.265953 0.829669 0.501135 -2.493723 -2.446573 -1.615900 -10.757651 2.183445 -2.168922 16.755816 0.911186 -1.009149 6.941978 0.000000 0.000000 0.000000 -1.683819 8.433574 -34.396153 19.363964 -29.868405 5.210849 4.779812 7.978047 24.542539 0.000000 0.000000 0.000000 -7.125000 0.000000 0.000000 -15.051769 6.053248 -13.879957 0.000000 0.000000 0.000000 -0.743857 15.381294 26.790833 -24.182563 -35.356733 -7.811937 -9.187031 19.902802 28.727804 0.000000 0.000000 0.000000 7.125000 0.000000 0.000000 23.739208 57.400464 -7.492513
-0.637755 18.589135 6.378536 -1.889924 -2.930153 -1.504100 0.000000 0.000000 0.000000 -14.324675 -7.396293 1.789944 1.546282 7.848999 22.256308 1.722707 2.898837 -25.979165 8.444743 -16.436813 -54.149277 0.000000 0.000000 0.000000 13.824540 -10.213337 9.204460 0.000000 0.000000 0.000000 -0.513988 0.395482 -13.413010 -0.184717 2.767976 -7.633519 -0.055733 0.775460 4.900016 0.804479 1.050557 0.303919 0.785019 0.528148 -2.450229 -2.528725 -1.711615 -11.021549 2.341789 -2.312137 16.968574 0.961016 -1.067341 7.063357 0.000000 0.000000 0.000000 -1.548753 8.384815 -34.181558 19.401066 -29.914026 5.229345 4.678361 8.168061 24.446720 0.000000 0.000000 0.000000 -7.125000 0.000000 0.000000 -15.113287 6.154062 -13.910713 0.000000 0.000000 0.000000 -0.670471 15.449698 26.890700 -24.190861 -35.365449 -7.816713 -9.692190 20.165990 28.683513 0.000000 0.000000 0.000000 7.125000 0.000000 0.000000 23.199538 57.466608 -7.346838
-0.642322 18.588787 6.381779 -1.930411 -2.986030 -1.488022 0.000000 0.000000 0.000000 -14.269105 -7.382165 1.798051 1.546013 7.848353 22.254560 1.728372 2.904786 -26.021834 8.439074 -16.432917 -54.129203 0.000000 0.000000 0.000000 13.887391 -10.158909 9.203582 0.000000 0.000000 0.000000 -0.513247 0.353685 -13.417083 -0.192621 2.826023 -7.794732 -0.042855 0.799823 4.885763 0.838357 1.084415 0.323404 0.810657 0.544971 -2.423181 -2.252044 -1.508145 -10.727602 1.885713 -2.001784 16.721130 0.798509 -0.942578 6.916428 0.000000 0.000000 0.000000 -1.454097 8.390166 -34.069646 19.448896 -29.972603 5.253227 4.619215 8.186446 24.470664 0.000000 0.000000 0.000000 -7.125000 0.000000 0.000000 -15.148660 6.135778 -13.951326 0.000000 0.000000 0.000000 -0.648571 15.512086 27.016970 -24.172225 -35.345827 -7.805994 -9.751841 20.203633 28.849542 0.000000 0.000000 0.000000 7.125000 0.000000 0.000000 23.259772 57.630029 -7.462411
